# xmcd
#
# Track frame offsets:
# 150
# 18170
# 38897
# 58242
# 64510
# 82558
# 93895
# 110547
# 130621
# 148831
# 167059
# 185679
#
# Disc length: 2643 seconds
#
# Revision: 0
# Processed by: cddbd v1.5.2PL0 Copyright (c) Steve Scherf et al.
# Submitted via: Audion 3.0.2 (http://www.panic.com/audion/)
#
DISCID=960a510c
DTITLE=Steve Miller Band - Stev Miller Band Greatests Hits Disc 3
DYEAR=1900
DGENRE=
TTITLE0=Wide River
TTITLE1=Evil (Live)
TTITLE2=The Window
TTITLE3=Gangster of Love
TTITLE4=Heart Like a Wheel
TTITLE5=Roll With It
TTITLE6=One In A Million
TTITLE7=I Want to Make The World Turn Around
TTITLE8=Nobody But You Baby
TTITLE9=Sugar Babe
TTITLE10=Cry, Cry, Cry
TTITLE11=Who Do You Love
EXTD=
EXTT0=
EXTT1=
EXTT2=
EXTT3=
EXTT4=
EXTT5=
EXTT6=
EXTT7=
EXTT8=
EXTT9=
EXTT10=
EXTT11=
PLAYORDER=
